<?xml version="1.0" encoding="UTF-8" standalone="no"?>
<!-- Created with Inkscape (http://www.inkscape.org/) -->

<svg
   version="1.1"
   id="svg1"
   width="1122.52"
   height="434.21332"
   viewBox="0 0 1122.52 434.21332"
   xmlns="http://www.w3.org/2000/svg"
   xmlns:svg="http://www.w3.org/2000/svg">
  <defs
     id="defs1" />
  <g
     id="g1">
    <g
       id="group-R5">
      <path
         id="path2"
         d="m 588.375,507.621 c 0,51.988 -10.832,76.539 -45.492,76.539 -85.918,0 -132.137,-174.019 -132.137,-291.711 0,-51.277 10.832,-75.828 46.219,-75.828 85.918,0 131.41,173.289 131.41,291 z M 446.852,140.801 c -85.196,0 -133.582,51.988 -133.582,149.48 0,168.969 74.371,369.68 240.441,369.68 83.766,0 132.148,-52.711 132.148,-150.18 0,-168.242 -73.664,-368.98 -239.007,-368.98"
         style="fill:#2d4fa3;fill-opacity:1;fill-rule:nonzero;stroke:none"
         transform="matrix(0.13333333,0,0,-0.13333333,0,434.21333)" />
      <path
         id="path3"
         d="m 809.332,222.41 c 5.781,-2.898 21.66,-14.461 46.215,-14.461 73.648,0 100.367,116.992 100.367,192.09 0,31.031 -12.277,49.801 -34.66,49.801 -44.047,0 -75.094,-56.309 -86.645,-108.301 z M 768.176,27.4492 c -1.446,-7.2109 -2.164,-10.1094 -13,-12.2773 L 691.637,2.19141 C 688.75,1.44922 682.98,0 680.805,0 c -3.61,0 -3.61,2.89844 -3.61,6.5 0,4.3398 2.164,10.8398 2.887,15.1602 l 82.32,387.0388 c 3.61,15.883 2.887,28.871 2.887,37.539 -0.723,17.313 -5.773,34.672 -5.773,43.332 0,5.051 5.05,6.481 8.66,7.95 l 57.765,22.359 c 2.164,0.723 5.051,2.191 8.668,2.191 7.942,0 13.715,-28.91 13.715,-65 18.055,20.942 51.262,65 115.528,65 51.268,0 78.708,-36.109 78.708,-108.332 0,-115.519 -58.494,-272.937 -183.412,-272.937 -35.371,0 -51.261,11.57 -62.808,18.07 L 768.176,27.4492"
         style="fill:#2d4fa3;fill-opacity:1;fill-rule:nonzero;stroke:none"
         transform="matrix(0.13333333,0,0,-0.13333333,0,434.21333)" />
      <path
         id="path4"
         d="m 1184.09,355.25 c 31.05,0 127.81,0 127.81,66.449 0,18.762 -11.56,35.371 -33.22,35.371 -67.87,0 -88.09,-75.09 -94.59,-101.82 z m 167.52,-163.168 c 0.72,-2.172 2.16,-4.344 2.16,-6.5 0,-9.383 -67.15,-44.781 -140.8,-44.781 -86.65,0 -125.63,54.148 -125.63,134.32 0,144.391 93.14,246.949 204.34,246.949 67.87,0 106.86,-37.558 106.86,-95.32 0,-136.469 -183.4,-136.469 -224.56,-136.469 0,-21.66 -5.77,-77.269 62.09,-77.269 42.61,0 80.88,28.886 91.71,28.886 3.61,0 4.33,-2.168 5.78,-5.058 l 18.05,-44.758"
         style="fill:#2d4fa3;fill-opacity:1;fill-rule:nonzero;stroke:none"
         transform="matrix(0.13333333,0,0,-0.13333333,0,434.21333)" />
      <path
         id="path5"
         d="m 1688.82,161.75 c -1.44,-7.961 -2.89,-8.668 -10.11,-8.668 h -67.15 c -5.78,0 -9.4,1.449 -9.4,7.207 0,2.191 0.73,5.063 0.73,7.953 l 47.66,205.789 c 3.61,14.449 6.5,28.879 6.5,44.051 0,16.617 -6.5,28.156 -21.66,28.156 -66.43,0 -90.26,-89.539 -101.82,-141.508 l -31.05,-142.98 c -1.44,-7.961 -2.89,-8.668 -10.1,-8.668 h -67.15 c -5.78,0 -9.39,1.449 -9.39,7.207 0,2.191 0.73,5.063 0.73,7.953 l 49.09,217.34 c 4.33,18.047 8.67,36.117 8.67,59.199 0,21.668 -6.49,31.789 -6.49,44.789 0,5.051 5.04,6.481 8.65,7.95 l 57.77,22.359 c 2.16,0.723 3.61,2.191 7.22,2.191 7.94,0 14.44,-32.5 14.44,-72.949 19.49,23.109 60.65,72.949 119.87,72.949 46.92,0 72.92,-36.109 72.92,-75.832 0,-18.777 -2.89,-38.289 -7.23,-56.328 l -52.7,-228.16"
         style="fill:#2d4fa3;fill-opacity:1;fill-rule:nonzero;stroke:none"
         transform="matrix(0.13333333,0,0,-0.13333333,0,434.21333)" />
      <path
         id="path6"
         d="m 1976.21,305.43 c -2.89,-10.098 -4.34,-10.809 -13,-10.809 h -149.46 c -7.23,0 -12.28,2.879 -12.28,7.949 0,4.301 1.45,11.551 2.16,15.871 l 10.84,48.379 c 2.88,10.09 4.33,10.821 13,10.821 h 149.45 c 7.95,0 12.28,-2.149 12.28,-7.942 0,-4.328 -1.44,-11.558 -2.16,-15.867 l -10.83,-48.402"
         style="fill:#2d4fa3;fill-opacity:1;fill-rule:nonzero;stroke:none"
         transform="matrix(0.13333333,0,0,-0.13333333,0,434.21333)" />
      <path
         id="path7"
         d="m 2395.73,161.75 c -1.45,-6.512 -3.62,-8.668 -10.11,-8.668 h -39 c -4.33,0 -7.22,1.449 -7.22,4.328 0,1.461 1.44,5.07 1.44,7.219 L 2408,534.332 c 1.44,6.5 6.49,29.598 7.94,36.828 l -1.45,1.449 c -3.6,-11.578 -12.27,-31.07 -16.6,-38.277 L 2257.81,275.121 c -2.89,-5.789 -3.61,-6.5 -10.83,-6.5 h -20.94 c -7.23,0 -9.38,0.711 -10.11,9.379 l -26.72,256.332 c -2.15,18.047 -2.88,33.949 -2.88,41.168 h -1.45 c -0.71,-12.301 -4.33,-32.5 -6.5,-41.168 L 2088.85,161.75 c -1.44,-6.512 -3.62,-8.668 -10.11,-8.668 h -38.99 c -4.33,0 -7.22,1.449 -7.22,5.789 0,1.418 0.72,3.609 1.44,5.758 l 127.81,475.121 c 1.44,6.488 4.33,7.949 10.83,7.949 h 38.27 c 5.78,0 9.38,0 10.11,-8.679 l 29.6,-249.821 c 1.44,-11.558 1.44,-22.379 1.44,-38.258 h 1.45 c 2.89,9.391 10.83,28.141 16.6,38.258 l 135.75,252 c 2.89,5.75 3.61,6.5 11.56,6.5 h 45.49 c 6.49,0 7.22,-2.168 7.22,-5.058 0,-1.442 -0.73,-4.34 -0.73,-5.789 L 2395.73,161.75"
         style="fill:#2d4fa3;fill-opacity:1;fill-rule:nonzero;stroke:none"
         transform="matrix(0.13333333,0,0,-0.13333333,0,434.21333)" />
      <path
         id="path8"
         d="m 2647.02,589.941 c -22.39,0 -40.44,18.051 -40.44,40.418 0,21.653 18.05,40.43 40.44,40.43 21.66,0 40.43,-18.777 40.43,-40.43 0,-22.367 -18.77,-40.418 -40.43,-40.418 z m -68.6,-422.41 c -1.44,-6.5 -2.17,-14.449 -9.39,-14.449 h -38.27 c -4.32,0 -7.22,1.449 -7.22,3.598 0,2.902 0.72,6.511 1.45,8.672 l 62.09,292.437 h -57.04 c -5.05,0 -5.78,2.16 -5.78,5.063 0,1.449 0,2.878 0.73,5.769 l 5.05,23.121 c 1.45,5.039 3.62,7.93 8.67,7.93 h 96.03 c 10.11,0 11.55,-0.723 11.55,-5.781 0,-4.321 -2.16,-10.102 -3.6,-18.032 l -64.27,-308.328"
         style="fill:#2d4fa3;fill-opacity:1;fill-rule:nonzero;stroke:none"
         transform="matrix(0.13333333,0,0,-0.13333333,0,434.21333)" />
      <path
         id="path9"
         d="m 2747.38,405.082 c 2.89,15.156 5.05,31.047 5.05,41.156 0,14.442 -2.88,28.883 -5.78,43.332 0,2.879 3.62,5.051 6.5,5.762 l 26.01,10.828 c 4.33,1.461 7.21,3.621 10.1,3.621 5.77,0 13.71,-21.672 13.71,-44.051 0,-14.441 -2.16,-25.98 -2.16,-32.488 h 1.45 c 26.71,37.547 66.42,76.539 130.68,76.539 37.56,0 65.72,-19.5 65.72,-57.769 0,-17.313 -3.62,-33.93 -7.23,-50.563 l -51.26,-241.16 c -1.45,-5.051 -2.89,-7.207 -8.67,-7.207 h -37.54 c -3.62,0 -5.78,1.449 -5.78,4.328 0,1.461 0,3.621 0.72,5.07 l 50.54,238.969 c 2.17,9.41 4.33,19.512 4.33,28.91 0,20.211 -10.83,31.051 -32.48,31.051 -77.99,0 -120.59,-96.039 -130.69,-143.699 l -33.22,-157.422 c -1.45,-5.051 -2.89,-7.207 -8.66,-7.207 h -37.55 c -3.62,0 -5.78,1.449 -5.78,4.328 0,1.461 0,3.621 0.72,5.07 l 51.27,242.602"
         style="fill:#2d4fa3;fill-opacity:1;fill-rule:nonzero;stroke:none"
         transform="matrix(0.13333333,0,0,-0.13333333,0,434.21333)" />
      <path
         id="path10"
         d="m 3293.98,439.75 c -18.04,10.82 -31.76,21.66 -63.53,21.66 -90.25,0 -117.7,-132.129 -117.7,-208.68 0,-36.82 9.39,-61.371 39.72,-61.371 59.92,0 101.81,60.653 116.97,132.86 z m 46.22,214.449 c 0.72,4.313 2.17,10.102 7.22,11.543 l 36.1,8.656 c 1.45,0 3.61,1.461 6.5,1.461 5.05,0 5.78,-2.187 5.05,-5.777 l -86.64,-406.531 c -2.89,-15.153 -4.34,-34.641 -4.34,-51.981 0,-20.211 7.23,-38.281 7.23,-43.328 0,-2.89 -4.33,-5.051 -7.23,-5.762 l -25.98,-10.839 c -4.34,-1.45 -7.23,-3.61 -10.12,-3.61 -5.77,0 -13.71,21.66 -13.71,44.051 -0.73,12.27 -0.73,18.059 -0.73,24.539 h -1.44 c -20.94,-30.332 -55.6,-73.652 -112.64,-73.652 -51.99,0 -81.59,35.371 -81.59,106.871 0,123.461 53.43,259.941 170.4,259.941 38.27,0 59.93,-14.449 75.81,-23.82 l 36.11,168.238"
         style="fill:#2d4fa3;fill-opacity:1;fill-rule:nonzero;stroke:none"
         transform="matrix(0.13333333,0,0,-0.13333333,0,434.21333)" />
      <path
         id="path11"
         d="m 3632.65,415.191 c 0,30.321 -17.34,49.829 -52.72,49.829 -82.32,0 -105.42,-93.891 -113.37,-129.239 39.72,0 166.09,0 166.09,79.41 z m 21.66,-217.332 c 0.71,-1.449 1.44,-2.168 1.44,-3.617 0,-8.66 -63.55,-51.273 -133.58,-51.273 -81.6,0 -116.97,51.98 -116.97,132.152 0,122.738 75.08,234.66 182.67,234.66 64.26,0 95.31,-38.992 95.31,-92.441 0,-125.629 -158.85,-125.629 -222.39,-126.34 0,-6.488 -0.73,-12.27 -0.73,-18.051 0,-51.269 20.22,-79.437 67.16,-79.437 64.26,0 93.14,34.679 103.25,34.679 2.89,0 5.06,-2.179 6.5,-4.339 l 17.34,-25.993"
         style="fill:#2d4fa3;fill-opacity:1;fill-rule:nonzero;stroke:none"
         transform="matrix(0.13333333,0,0,-0.13333333,0,434.21333)" />
      <path
         id="path12"
         d="m 3961.9,439.75 c -18.06,10.82 -31.77,21.66 -63.55,21.66 -90.25,0 -117.7,-132.129 -117.7,-208.68 0,-36.82 9.39,-61.371 39.73,-61.371 59.92,0 101.8,60.653 116.97,132.86 z m 46.21,214.449 c 0.72,4.313 2.16,10.102 7.22,11.543 l 36.11,8.656 c 1.44,0 3.6,1.461 6.49,1.461 5.06,0 5.77,-2.187 5.06,-5.777 l -86.65,-406.531 c -2.89,-15.153 -4.33,-34.641 -4.33,-51.981 0,-20.211 7.22,-38.281 7.22,-43.328 0,-2.89 -4.33,-5.051 -7.22,-5.762 l -25.99,-10.839 c -4.34,-1.45 -7.23,-3.61 -10.11,-3.61 -5.78,0 -13.73,21.66 -13.73,44.051 -0.72,12.27 -0.72,18.059 -0.72,24.539 h -1.45 c -20.93,-30.332 -55.59,-73.652 -112.63,-73.652 -51.98,0 -81.59,35.371 -81.59,106.871 0,123.461 53.42,259.941 170.4,259.941 38.27,0 59.93,-14.449 75.82,-23.82 l 36.1,168.238"
         style="fill:#2d4fa3;fill-opacity:1;fill-rule:nonzero;stroke:none"
         transform="matrix(0.13333333,0,0,-0.13333333,0,434.21333)" />
      <path
         id="path13"
         d="M 0,1161.91 H 8418.9 V 3256.64 H 0 V 1161.91"
         style="fill:#2d4fa3;fill-opacity:1;fill-rule:nonzero;stroke:none"
         transform="matrix(0.13333333,0,0,-0.13333333,0,434.21333)" />
      <path
         id="path14"
         d="m 572.828,1984.93 c -27.59,-18.52 -66.074,-21.92 -118.273,-21.92 H 333.383 v 419.85 h 121.172 c 52.199,0 90.187,-2.39 118.273,-21.27 33.856,-22.95 54.012,-66.61 54.012,-124.01 v -128.65 c 0,-57.42 -20.156,-101.64 -54.012,-124 m -40.195,232.54 c 0,60.89 -23.473,84.39 -84.391,84.39 H 426.41 v -257.89 h 21.832 c 60.258,0 84.391,24.16 84.391,85.06 z m 554.757,-264.79 c -101.702,0 -150.495,48.28 -150.495,146.52 v 283.66 h 93.075 v -262.47 c 0,-60.83 9.18,-86.67 57.42,-86.67 48.76,0 57.4,26.36 57.4,86.67 v 262.47 h 93.01 V 2099.2 c 0,-98.81 -48.25,-146.52 -150.41,-146.52 m 482.32,10.33 -0.6,419.85 h 93.07 l 0.53,-419.85 z m 534.6,356.15 c -28.73,0 -46.48,-16.11 -46.48,-38.51 0,-21.29 16.66,-36.82 50.5,-51.7 42.51,-18.38 79.86,-30.43 105.09,-50.53 28.11,-22.42 44.22,-56.33 44.22,-97.07 0,-76.44 -57.36,-129.16 -144.71,-129.16 -66.05,0 -116.52,28.73 -151.64,84.92 l 72.41,51.18 c 24.13,-39.69 47.72,-57.99 81.57,-57.99 32.17,0 52.82,18.88 52.82,44.12 0,22.97 -14.94,40.23 -46.47,53.46 -41.38,17.18 -77.58,29.33 -103.96,49.88 -29.31,23.08 -44.24,55.15 -44.24,94.16 0,74.12 52.21,121.83 136.1,121.83 60.83,0 107.4,-25.19 137.24,-74.08 l -66.63,-47.75 c -22.42,31.72 -47.11,47.24 -75.82,47.24 m 670.77,-135.07 c 44.77,-14.32 67.13,-47.58 67.13,-100.49 0,-82.11 -48.2,-120.59 -147,-120.59 h -141.82 v 419.85 h 138.97 c 94.73,0 141.25,-33.99 141.25,-106.86 0,-45.39 -17.74,-73.48 -58.53,-91.91 m -91.89,133.86 h -36.76 v -103.98 h 36.76 c 37.89,0 56.23,17.3 56.23,52.23 0,36.21 -17.81,51.75 -56.23,51.75 m 3.46,-169.33 h -40.22 v -117.15 h 40.22 c 41.87,0 62.03,18.36 62.03,58.46 0,40.21 -20.16,58.69 -62.03,58.69 m 610.43,-195.94 c -101.72,0 -150.51,48.28 -150.51,146.52 v 283.66 h 93.01 v -262.47 c 0,-60.83 9.25,-86.67 57.5,-86.67 48.75,0 57.41,26.36 57.41,86.67 v 262.47 h 92.98 V 2099.2 c 0,-98.81 -48.25,-146.52 -150.39,-146.52 m 686.79,192.38 91.79,-182.05 h -102.67 l -81.58,171.12 h -31.04 v -171.12 h -92.98 v 419.85 h 105.57 c 56.3,0 98.82,-1.74 129.23,-17.88 37.89,-20.03 58.57,-57.42 58.57,-106.13 0,-56.33 -27.01,-96.54 -76.89,-113.79 m -97.7,166.57 h -25.8 v -110.24 h 25.8 c 56.31,0 81.53,8.01 81.53,55.08 0,47.17 -25.22,55.16 -81.53,55.16 m 610.37,-198.07 v 71.74 h 143.04 v -227.46 h -41.31 l -13.29,33.98 c -24.67,-27.66 -52.2,-39.63 -90.66,-39.63 -42.43,0 -78.7,14.22 -102.24,39.06 -34.38,35.49 -37.23,79.71 -37.23,144.63 V 2210 c 0,64.26 2.85,109.16 37.23,144.71 24.15,25.25 60.33,39.04 105.04,39.04 85.11,0 138.45,-48.22 142.46,-129.18 h -94.17 c -2.27,31.51 -19.01,48.15 -48.29,48.15 -45.91,0 -48.16,-29.18 -48.16,-86.6 v -105.73 c 0,-56.83 2.25,-86.67 48.16,-86.67 33.95,0 48.29,20.03 48.29,63.67 v 16.17 h -48.87"
         style="fill:#ffffff;fill-opacity:1;fill-rule:nonzero;stroke:none"
         transform="matrix(0.13333333,0,0,-0.13333333,0,434.21333)" />
      <path
         id="path15"
         d="m 911.488,1624.81 v -80.94 H 616.305 v 419.79 h 283.148 v -81.04 H 709.324 v -75.27 h 129.801 v -80.9 H 709.324 v -101.64 z m 390.452,275.08 c -28.7,0 -46.47,-16.1 -46.47,-38.52 0,-21.23 16.61,-36.68 50.52,-51.7 42.51,-18.32 79.84,-30.35 105.09,-50.53 28.09,-22.3 44.21,-56.26 44.21,-96.95 0,-76.44 -57.43,-129.2 -144.74,-129.2 -65.98,0 -116.54,28.61 -151.6,84.94 l 72.39,51.12 c 24.13,-39.59 47.67,-58.03 81.58,-58.03 32.08,0 52.8,18.93 52.8,44.2 0,22.95 -14.97,40.21 -46.51,53.38 -41.39,17.26 -77.59,29.28 -103.91,50.02 -29.28,22.95 -44.29,55.11 -44.29,94.16 0,74.12 52.29,121.7 136.08,121.7 60.92,0 107.4,-25.2 137.32,-74.07 l -66.62,-47.63 c -22.43,31.6 -47.13,47.11 -75.85,47.11 m 540.37,0 c -28.72,0 -46.55,-16.1 -46.55,-38.52 0,-21.23 16.74,-36.68 50.58,-51.7 42.49,-18.32 79.85,-30.35 105.13,-50.53 28.11,-22.3 44.15,-56.26 44.15,-96.95 0,-76.44 -57.42,-129.2 -144.64,-129.2 -66.11,0 -116.58,28.61 -151.64,84.94 l 72.35,51.12 c 24.07,-39.59 47.68,-58.03 81.51,-58.03 32.22,0 52.87,18.93 52.87,44.2 0,22.95 -14.93,40.21 -46.53,53.38 -41.38,17.26 -77.51,29.28 -103.95,50.02 -29.26,22.95 -44.16,55.11 -44.16,94.16 0,74.12 52.2,121.7 136.04,121.7 60.9,0 107.36,-25.2 137.21,-74.07 l -66.57,-47.63 c -22.42,31.6 -47.09,47.11 -75.8,47.11 m 721.84,-275.08 v -80.94 h -295.13 v 419.79 h 283.04 v -81.04 h -190.08 v -75.27 h 129.87 v -80.9 h -129.87 v -101.64 z m 505.87,-80.94 -147.53,283.63 1.7,-283.63 h -80.91 v 419.79 h 89.52 l 134.4,-255.06 -1.72,255.06 h 80.95 v -419.79 h -76.41"
         style="fill:#ffffff;fill-opacity:1;fill-rule:nonzero;stroke:none"
         transform="matrix(0.13333333,0,0,-0.13333333,0,434.21333)" />
      <path
         id="path16"
         d="m 445.641,2637.31 c -75.192,0 -111.215,35.67 -111.215,108.35 v 209.74 h 68.765 v -194.14 c 0,-44.99 6.727,-64.07 42.45,-64.07 36.156,0 42.488,19.55 42.488,64.07 v 194.14 h 68.766 v -209.74 c 0,-73.07 -35.625,-108.35 -111.254,-108.35 m 366.515,7.56 -109.125,209.86 1.25,-209.86 h -59.847 v 310.53 h 66.207 l 99.437,-188.6 -1.316,188.6 h 59.937 v -310.53 z m 150.332,0 -0.394,310.53 h 68.836 l 0.39,-310.53 z m 298.582,0 h -72.62 l -95.09,310.53 h 68.78 l 62.82,-217.03 62.42,217.03 h 68.86 z m 367.35,59.93 v -59.93 h -218.24 v 310.53 h 209.33 v -59.87 h -140.49 v -55.63 h 95.93 v -59.89 h -95.93 v -75.21 z m 228.98,74.77 67.95,-134.7 h -76.02 L 1789,2771.51 h -22.97 v -126.64 h -68.78 v 310.53 h 78.14 c 41.66,0 73.07,-1.29 95.61,-13.17 27.97,-14.88 43.27,-42.46 43.27,-78.54 0,-41.65 -19.98,-71.28 -56.87,-84.12 m -72.22,123.16 h -19.15 v -81.51 h 19.15 c 41.67,0 60.32,5.92 60.32,40.7 0,34.95 -18.65,40.81 -60.32,40.81 m 283.26,5.55 c -21.23,0 -34.39,-11.92 -34.39,-28.49 0,-15.66 12.34,-27.18 37.44,-38.16 31.33,-13.54 58.97,-22.56 77.67,-37.38 20.8,-16.57 32.7,-41.64 32.7,-71.8 0,-56.53 -42.45,-95.59 -107.02,-95.59 -48.83,0 -86.25,21.27 -112.2,62.91 l 53.53,37.77 c 17.88,-29.33 35.32,-42.86 60.33,-42.86 23.81,0 39.15,13.98 39.15,32.61 0,17.04 -11.03,29.85 -34.45,39.51 -30.58,12.77 -57.38,21.66 -76.83,36.99 -21.66,17.03 -32.74,40.82 -32.74,69.67 0,54.79 38.68,90.04 100.63,90.04 45.03,0 79.43,-18.69 101.53,-54.77 l -49.25,-35.27 c -16.63,23.41 -34.84,34.82 -56.1,34.82 m 188.61,-263.41 -0.44,310.53 h 68.77 l 0.47,-310.53 z m 274.4,250.66 v -250.66 h -68.86 v 250.66 H 2384 v 59.87 h 225.92 v -59.87 z m 241.61,135.84 h 52.22 v -55.99 h -52.22 z m -75.18,0 h 51.82 v -55.99 h -51.82 z m 104.03,-75.97 89.23,-310.53 h -66.66 l -16.64,62.04 h -93.4 l -16.16,-62.04 h -66.72 l 89.25,310.53 z m -7.19,-195.37 -33.14,140.19 -33.53,-140.19 z m 265.85,135.5 v -250.66 h -68.77 v 250.66 h -78.61 v 59.87 h 225.97 v -59.87 h -78.59"
         style="fill:#ffffff;fill-opacity:1;fill-rule:nonzero;stroke:none"
         transform="matrix(0.13333333,0,0,-0.13333333,0,434.21333)" />
    </g>
  </g>
</svg>
